HIERARCHY
ROOT Hips
{
	OFFSET 0.00000 0.00000 0.00000
	CHANNELS 6 Xposition Yposition Zposition Zrotation Yrotation Xrotation 
	JOINT LHipJoint
	{
		OFFSET 0 0 0
		CHANNELS 3 Zrotation Yrotation Xrotation
		JOINT LeftUpLeg
		{
			OFFSET 1.64549 -1.70879 0.84566
			CHANNELS 3 Zrotation Yrotation Xrotation
			JOINT LeftLeg
			{
				OFFSET 2.24963 -6.18082 0.00000
				CHANNELS 3 Zrotation Yrotation Xrotation
				JOINT LeftFoot
				{
					OFFSET 2.71775 -7.46697 0.00000
					CHANNELS 3 Zrotation Yrotation Xrotation
					JOINT LeftToeBase
					{
						OFFSET 0.18768 -0.51564 2.24737
						CHANNELS 3 Zrotation Yrotation Xrotation
						End Site
						{
							OFFSET 0.00000 -0.00000 1.15935
						}
					}
				}
			}
		}
	}
	JOINT RHipJoint
	{
		OFFSET 0 0 0
		CHANNELS 3 Zrotation Yrotation Xrotation
		JOINT RightUpLeg
		{
			OFFSET -1.58830 -1.70879 0.84566
			CHANNELS 3 Zrotation Yrotation Xrotation
			JOINT RightLeg
			{
				OFFSET -2.25006 -6.18201 0.00000
				CHANNELS 3 Zrotation Yrotation Xrotation
				JOINT RightFoot
				{
					OFFSET -2.72829 -7.49593 0.00000
					CHANNELS 3 Zrotation Yrotation Xrotation
					JOINT RightToeBase
					{
						OFFSET -0.21541 -0.59185 2.10643
						CHANNELS 3 Zrotation Yrotation Xrotation
						End Site
						{
							OFFSET -0.00000 -0.00000 1.09838
						}
					}
				}
			}
		}
	}
	JOINT LowerBack
	{
		OFFSET 0 0 0
		CHANNELS 3 Zrotation Yrotation Xrotation
		JOINT Spine
		{
			OFFSET 0.03142 2.10496 -0.11038
			CHANNELS 3 Zrotation Yrotation Xrotation
			JOINT Spine1
			{
				OFFSET -0.01863 2.10897 -0.06956
				CHANNELS 3 Zrotation Yrotation Xrotation
				JOINT Neck
				{
					OFFSET 0 0 0
					CHANNELS 3 Zrotation Yrotation Xrotation
					JOINT Neck1
					{
						OFFSET -0.02267 1.73238 0.00451
						CHANNELS 3 Zrotation Yrotation Xrotation
						JOINT Head
						{
							OFFSET -0.05808 1.54724 -0.61749
							CHANNELS 3 Zrotation Yrotation Xrotation
							End Site
							{
								OFFSET -0.01396 1.71468 -0.21082
							}
						}
					}
				}
				JOINT LeftShoulder
				{
					OFFSET 0 0 0
					CHANNELS 3 Zrotation Yrotation Xrotation
					JOINT LeftArm
					{
						OFFSET 3.44898 0.50298 0.21920
						CHANNELS 3 Zrotation Yrotation Xrotation
						JOINT LeftForeArm
						{
							OFFSET 5.41917 -0.00000 -0.00000
							CHANNELS 3 Zrotation Yrotation Xrotation
							JOINT LeftHand
							{
								OFFSET 2.44373 -0.00000 0.00000
								CHANNELS 3 Zrotation Yrotation Xrotation
								JOINT LeftFingerBase
								{
									OFFSET 0 0 0
									CHANNELS 3 Zrotation Yrotation Xrotation
									JOINT LeftHandIndex1
									{
										OFFSET 0.72750 -0.00000 0.00000
										CHANNELS 3 Zrotation Yrotation Xrotation
										End Site
										{
											OFFSET 0.58653 -0.00000 0.00000
										}
									}
								}
								JOINT LThumb
								{
									OFFSET 0 0 0
									CHANNELS 3 Zrotation Yrotation Xrotation
									End Site
									{
										OFFSET 0.59549 -0.00000 0.59549
									}
								}
							}
						}
					}
				}
				JOINT RightShoulder
				{
					OFFSET 0 0 0
					CHANNELS 3 Zrotation Yrotation Xrotation
					JOINT RightArm
					{
						OFFSET -3.23015 0.55830 0.31051
						CHANNELS 3 Zrotation Yrotation Xrotation
						JOINT RightForeArm
						{
							OFFSET -5.58976 -0.00010 0.00014
							CHANNELS 3 Zrotation Yrotation Xrotation
							JOINT RightHand
							{
								OFFSET -2.48060 -0.00000 0.00000
								CHANNELS 3 Zrotation Yrotation Xrotation
								JOINT RightFingerBase
								{
									OFFSET 0 0 0
									CHANNELS 3 Zrotation Yrotation Xrotation
									JOINT RightHandIndex1
									{
										OFFSET -0.81601 -0.00000 0.00000
										CHANNELS 3 Zrotation Yrotation Xrotation
										End Site
										{
											OFFSET -0.65789 -0.00000 0.00000
										}
									}
								}
								JOINT RThumb
								{
									OFFSET 0 0 0
									CHANNELS 3 Zrotation Yrotation Xrotation
									End Site
									{
										OFFSET -0.66793 -0.00000 0.66793
									}
								}
							}
						}
					}
				}
			}
		}
	}
}
MOTION
Frames: 9
Frame Time: 0.0138889
0.00 0.00 0.00 -169.6570 40.2658 -156.7780 0.0000 0.0000 0.0000 -18.2520 2.8318 -45.1060 8.1876 16.2555 53.2357 177.3139 -36.8750 -12.9017 1.6348 -8.0598 -22.8960 0.0000 0.0000 0.0000 8.4523 11.7748 -33.7537 -6.6866 -15.0622 47.6789 -176.8802 41.9243 -17.0145 -5.8042 -14.2359 44.1908 4.3647 -3.2457 -12.8381 -0.6771 -3.6580 -10.2169 -3.5041 -1.6621 -3.9691 -20.2494 -22.6614 2.0193 11.1722 -33.8696 32.7460 1.7594 -15.4144 17.3239 -0.0000 0.0000 0.0000 -14.3858 10.9384 -2.9362 8.3196 -14.0695 -1.0284 -0.0000 -0.0000 59.1642 -1.3198 27.7847 -0.6153 -7.1250 0.0000 -0.0000 -33.1718 54.4902 -8.4338 -0.0000 0.0000 0.0000 20.6889 -8.0238 -78.2316 -6.0855 10.4047 -0.5546 0.0000 0.0000 77.3459 -14.1878 11.9772 -3.0032 7.1250 -0.0000 -0.0000 9.0639 -17.7286 5.9486
0.00 0.00 0.00 -154.5010 68.5243 -149.4670 0.0000 0.0000 0.0000 -10.2747 10.9346 -35.2236 8.8490 16.7095 55.5664 175.2616 -37.0363 2.3493 0.5475 -4.7402 -13.1690 0.0000 0.0000 0.0000 14.4859 11.3858 -32.7278 -6.4880 -14.8851 46.9101 -176.3894 38.6473 -9.9298 -6.9327 -15.2750 48.6194 8.6937 -0.2964 -10.3719 -0.6251 -0.6600 -7.2620 -5.6071 -0.4873 -1.9793 -19.1423 -20.8977 -0.2038 9.0529 -30.8362 34.4863 1.4031 -14.2418 17.2784 -0.0000 0.0000 0.0000 -5.1385 7.2404 6.3253 8.4198 -14.2310 -1.0529 -0.0000 -0.0000 45.7292 -0.4352 30.1129 -0.2183 -7.1250 0.0000 -0.0000 -34.2076 56.6056 -10.5877 -0.0000 0.0000 0.0000 22.1122 -11.8592 -68.3871 -5.8344 9.9856 -0.5101 0.0000 0.0000 74.4860 -8.4956 9.9265 -1.4750 7.1250 -0.0000 -0.0000 13.1242 -20.0651 8.0360
0.00 0.00 0.00 -143.9200 82.1011 -140.0210 0.0000 0.0000 0.0000 -11.1944 13.6953 -31.8035 9.1693 16.9154 56.6738 176.9911 -30.3532 22.2451 0.2176 -3.0029 -8.2868 0.0000 0.0000 0.0000 13.6842 11.1202 -34.0913 -6.6546 -15.0340 47.5556 -174.4623 39.5667 2.4156 -6.7879 -15.1507 48.0676 6.5639 0.8944 -10.1926 -1.9705 0.9504 -6.4659 -5.6742 0.3756 -0.9411 -19.0003 -19.6609 -0.9005 9.8464 -29.3165 34.7629 2.0310 -13.5186 17.4594 0.0000 -0.0000 0.0000 -2.1755 4.7913 13.0299 8.8028 -14.8457 -1.1491 -0.0000 -0.0000 40.0450 -0.6359 32.1601 -0.3385 -7.1250 0.0000 -0.0000 -36.2354 58.2383 -12.8156 0.0000 -0.0000 0.0000 23.7468 -15.8858 -36.3915 -5.8448 10.0031 -0.5120 0.0000 0.0000 45.8604 -6.3204 6.6203 -0.7316 7.1250 -0.0000 -0.0000 14.9467 -23.3517 8.0664
0.00 0.00 0.00 0.3756 83.3561 4.6094 0.0000 0.0000 0.0000 -10.7899 8.5808 -29.1833 8.9203 16.7562 55.8141 -178.5199 -12.8931 30.8103 2.2814 -9.4292 -27.1472 0.0000 0.0000 0.0000 14.3076 11.9256 -36.2140 -6.6935 -15.0682 47.7053 -174.2022 38.4400 11.7291 -6.9144 -15.2594 48.5498 2.9796 -0.0835 -10.1712 -2.3265 -0.0898 -6.5421 -4.1043 -0.0699 -1.1312 -16.7270 -17.4964 -2.7281 9.1904 -26.0228 35.6733 2.2023 -11.9305 17.0875 0.0000 0.0000 0.0000 -2.6028 1.3582 8.0285 8.0065 -13.5633 -0.9536 -0.0000 -0.0000 47.4453 0.5380 30.2185 0.2708 -7.1250 0.0000 -0.0000 -33.3739 56.8942 -10.5279 0.0000 0.0000 0.0000 26.0605 -17.2992 -1.8544 -7.7268 13.1091 -0.8891 0.0000 0.0000 17.3448 -0.4490 5.1446 -0.0403 7.1250 -0.0000 -0.0000 19.3375 -24.7785 10.0077
0.00 0.00 0.00 17.6527 73.6664 22.9973 0.0000 0.0000 0.0000 -10.6098 -3.7226 -26.8952 7.7566 15.9373 51.6812 177.2512 -28.7860 19.6423 0.0195 -0.9015 -2.4777 0.0000 0.0000 0.0000 14.7488 12.9560 -36.0869 -6.4452 -14.8463 46.7432 -175.2232 37.8770 0.2035 -6.4173 -14.8209 46.6345 -1.6094 -2.0453 -11.2694 -2.6235 -2.2773 -6.8731 -2.0509 -1.0299 -0.9037 -14.4046 -15.3274 -5.9711 8.1740 -22.7653 38.3770 1.9820 -10.2037 18.1295 -0.0000 -0.0000 0.0000 -5.1717 -2.2262 9.1195 8.3875 -14.1790 -1.0450 -0.0000 -0.0000 47.8723 1.9166 28.6267 0.9185 -7.1250 0.0000 -0.0000 -30.7712 55.8283 -8.7684 -0.0000 -0.0000 0.0000 27.7725 -20.3324 25.0963 -12.0531 19.8842 -2.1203 0.0000 -0.0000 -5.8461 2.4970 3.6175 0.1576 7.1250 -0.0000 -0.0000 21.6884 -26.1633 10.6387
0.00 0.00 0.00 18.6299 71.5087 24.1379 0.0000 0.0000 0.0000 -10.2087 -7.0014 -26.5404 7.4724 15.7172 50.6393 175.9787 -32.8473 14.3697 0.0525 1.4786 4.0667 0.0000 0.0000 0.0000 15.0967 12.8990 -35.9964 -6.3955 -14.8009 46.5491 -175.7217 37.4453 -3.0650 -2.4153 -9.6823 27.9539 -2.6563 -2.6018 -11.3379 -2.4724 -2.9210 -6.8983 -1.3776 -1.3201 -0.8506 -14.0305 -14.7562 -6.7290 8.1600 -21.9496 38.7907 2.0592 -9.7885 18.3485 0.0000 -0.0000 0.0000 -6.0783 -2.9110 13.4159 8.9214 -15.0350 -1.1796 -0.0000 -0.0000 43.4856 1.4086 29.7128 0.6983 -7.1250 0.0000 -0.0000 -32.1209 56.6493 -9.8754 0.0000 -0.0000 0.0000 27.9500 -20.8376 29.1356 -13.3080 21.7368 -2.5662 0.0000 -0.0000 -9.5734 4.3295 3.0905 0.2339 7.1250 -0.0000 -0.0000 23.0863 -26.6036 11.1783
0.00 0.00 0.00 21.3502 67.1871 26.9415 0.0000 0.0000 0.0000 -9.8582 -13.1108 -26.3355 6.8850 15.2343 48.4379 176.0991 -39.5576 -9.6267 2.5733 9.9699 28.8793 0.0000 0.0000 0.0000 14.8495 13.0226 -36.0234 -6.3472 -14.7566 46.3597 -176.5175 35.9075 -6.1727 -5.9623 -14.3917 44.8304 -4.8180 -3.4451 -10.6779 -2.8435 -3.8946 -7.3245 -0.6184 -1.7294 -1.5587 -13.1463 -13.7628 -7.0652 8.6386 -20.8486 39.1437 2.3971 -9.1676 18.3903 -0.0000 0.0000 0.0000 -8.0817 -5.8644 14.2910 9.0314 -15.2104 -1.2083 -0.0000 -0.0000 43.8796 1.3491 28.7733 0.6495 -7.1250 0.0000 -0.0000 -31.4250 55.8410 -8.9926 -0.0000 0.0000 0.0000 30.1949 -23.5775 33.0871 -15.9886 25.5052 -3.6411 0.0000 -0.0000 -12.6162 6.9039 2.8754 0.3480 7.1250 -0.0000 -0.0000 24.9321 -26.7140 12.1796
0.00 0.00 0.00 20.2807 60.6887 26.0647 0.0000 0.0000 0.0000 -7.1894 -18.9272 -27.8513 6.0696 14.4955 45.2605 -178.3617 -36.3248 -32.7470 4.5235 12.8263 38.7215 0.0000 0.0000 0.0000 15.8076 15.2598 -35.2040 -6.3018 -14.7145 46.1812 -177.1383 34.7360 -8.7268 -5.0385 -13.4271 40.9889 -6.4315 -4.9157 -9.8385 -2.4176 -5.8280 -7.3937 0.5787 -2.6396 -1.8611 -10.8775 -11.6054 -8.9799 8.3458 -17.7969 38.9696 2.4758 -7.6458 17.8366 0.0000 -0.0000 0.0000 -12.3752 -8.9720 11.8581 9.0041 -15.1670 -1.2012 -0.0000 -0.0000 46.3438 1.0292 27.3231 0.4724 -7.1250 0.0000 -0.0000 -30.6367 54.5394 -7.7257 0.0000 -0.0000 0.0000 32.5952 -24.9585 38.8213 -20.5861 31.3420 -5.8331 0.0000 -0.0000 -15.9878 11.3230 2.6288 0.5262 7.1250 -0.0000 -0.0000 28.0007 -26.7332 14.0555
0.00 0.00 0.00 13.7682 51.7361 21.0582 0.0000 0.0000 0.0000 -0.4673 -21.5330 -34.0272 5.5061 13.9321 42.9659 -173.9693 -27.6983 -46.4533 5.1069 13.5032 41.2824 0.0000 0.0000 0.0000 18.8500 20.9745 -33.4862 -6.2186 -14.6369 45.8528 -177.9618 31.2191 -9.5810 -3.7132 -11.7686 34.9184 -3.9823 -5.1373 -7.8838 -1.5422 -6.5091 -7.5758 0.2769 -3.0627 -3.2252 -8.4625 -9.5972 -10.3858 8.2766 -15.1767 37.8445 2.4905 -6.3013 16.8395 0.0000 0.0000 0.0000 -20.0979 -15.7504 11.6755 9.6056 -16.1204 -1.3634 -0.0000 -0.0000 43.7634 -0.1660 29.7820 -0.0825 -7.1250 0.0000 -0.0000 -33.6750 56.3859 -10.2088 0.0000 0.0000 0.0000 36.5578 -28.8532 44.5579 -28.4354 39.5140 -10.3995 0.0000 -0.0000 -16.4426 17.7511 1.9833 0.6347 7.1250 -0.0000 -0.0000 32.3231 -26.8557 16.9198
